# xmcd
#
# Track frame offsets: 
#        150
#        15307
#        31532
#        45403
#        68275
#        103662
#        115444
#        134719
#        153402
#        184809
#        222040
#        255017
#        284788
#        320225
#
# Disc length: 4664 seconds
#
# Revision: 1
# Processed by: cddbd v1.5.2PL0 Copyright (c) Steve Scherf et al.
# Submitted via: ExactAudioCopy v0.99pb3
#
DISCID=bc12360e
DTITLE=Dave Brubeck - Time Was - These Foolish Things
DYEAR=1900
DGENRE=Jazz
TTITLE0=All the Things You Are
TTITLE1=Alice in Wonderland
TTITLE2=Stardust
TTITLE3=Over the Rainbow
TTITLE4=You Go to My Head
TTITLE5=Give a Little Whistle
TTITLE6=Oh, Lady Be Good
TTITLE7=This Can't Be Love
TTITLE8=Tea for Two
TTITLE9=Blue Moon
TTITLE10=Let's Fall in Love
TTITLE11=These Foolish Things
TTITLE12=Perdido
TTITLE13=Stardust
EXTD=
EXTT0=
EXTT1=
EXTT2=
EXTT3=
EXTT4=
EXTT5=
EXTT6=
EXTT7=
EXTT8=
EXTT9=
EXTT10=
EXTT11=
EXTT12=
EXTT13=
PLAYORDER=
